<mxfile host="app.diagrams.net" agent="Mozilla/5.0 (Windows NT 10.0; Win64; x64) AppleWebKit/537.36 (KHTML, like Gecko) Chrome/131.0.0.0 Safari/537.36" version="25.0.3">
  <diagram name="Page-1" id="esaoYNJ4XWV9G6-p3Pom">
    <mxGraphModel dx="1507" dy="1719" grid="1" gridSize="10" guides="1" tooltips="1" connect="1" arrows="1" fold="1" page="1" pageScale="1" pageWidth="827" pageHeight="1169" math="0" shadow="0">
      <root>
        <mxCell id="0" />
        <mxCell id="1" parent="0" />
        <mxCell id="0mwjVfkE0feZcu9_tGYi-4" style="edgeStyle=orthogonalEdgeStyle;rounded=0;orthogonalLoop=1;jettySize=auto;html=1;exitX=0.5;exitY=1;exitDx=0;exitDy=0;entryX=0.5;entryY=0;entryDx=0;entryDy=0;" edge="1" parent="1" source="0mwjVfkE0feZcu9_tGYi-27" target="0mwjVfkE0feZcu9_tGYi-2">
          <mxGeometry relative="1" as="geometry">
            <mxPoint x="445.0000000000002" y="-70" as="sourcePoint" />
          </mxGeometry>
        </mxCell>
        <mxCell id="0mwjVfkE0feZcu9_tGYi-11" value="" style="edgeStyle=orthogonalEdgeStyle;rounded=0;orthogonalLoop=1;jettySize=auto;html=1;" edge="1" parent="1" source="0mwjVfkE0feZcu9_tGYi-2" target="0mwjVfkE0feZcu9_tGYi-7">
          <mxGeometry relative="1" as="geometry" />
        </mxCell>
        <mxCell id="0mwjVfkE0feZcu9_tGYi-12" value="" style="edgeStyle=orthogonalEdgeStyle;rounded=0;orthogonalLoop=1;jettySize=auto;html=1;" edge="1" parent="1" source="0mwjVfkE0feZcu9_tGYi-2" target="0mwjVfkE0feZcu9_tGYi-8">
          <mxGeometry relative="1" as="geometry" />
        </mxCell>
        <mxCell id="0mwjVfkE0feZcu9_tGYi-2" value="Admin?" style="rhombus;whiteSpace=wrap;html=1;" vertex="1" parent="1">
          <mxGeometry x="320" y="150" width="160" height="100" as="geometry" />
        </mxCell>
        <mxCell id="0mwjVfkE0feZcu9_tGYi-35" style="edgeStyle=orthogonalEdgeStyle;rounded=0;orthogonalLoop=1;jettySize=auto;html=1;entryX=0;entryY=0.5;entryDx=0;entryDy=0;" edge="1" parent="1" source="0mwjVfkE0feZcu9_tGYi-7" target="0mwjVfkE0feZcu9_tGYi-27">
          <mxGeometry relative="1" as="geometry">
            <Array as="points">
              <mxPoint x="150" y="-10" />
            </Array>
          </mxGeometry>
        </mxCell>
        <mxCell id="0mwjVfkE0feZcu9_tGYi-39" style="edgeStyle=orthogonalEdgeStyle;rounded=0;orthogonalLoop=1;jettySize=auto;html=1;entryX=0.5;entryY=0;entryDx=0;entryDy=0;" edge="1" parent="1" source="0mwjVfkE0feZcu9_tGYi-7" target="0mwjVfkE0feZcu9_tGYi-38">
          <mxGeometry relative="1" as="geometry" />
        </mxCell>
        <mxCell id="0mwjVfkE0feZcu9_tGYi-7" value="&lt;div&gt;&lt;span style=&quot;&quot;&gt;== Bokhantering ==&lt;/span&gt;&lt;/div&gt;&lt;span style=&quot;&quot;&gt;1. Lista böcker&lt;/span&gt;&lt;div&gt;2. Sök böcker (w/ sort)&lt;br&gt;&lt;div&gt;2. Lägg till bok&lt;/div&gt;&lt;div&gt;3.Ta bort bok&lt;/div&gt;&lt;div&gt;4. Uppdatera bok info (title,author,ISBN,etc)&lt;/div&gt;&lt;div&gt;&lt;br&gt;&lt;/div&gt;&lt;div&gt;== Användarhantering ==&lt;br&gt;&lt;div style=&quot;&quot;&gt;5. Lista användare&lt;/div&gt;&lt;div style=&quot;&quot;&gt;6. Uppdatera användare&lt;/div&gt;&lt;div style=&quot;&quot;&gt;&lt;div&gt;&lt;div&gt;&lt;div&gt;7. Ta bort användare&lt;/div&gt;&lt;div&gt;&lt;br&gt;&lt;/div&gt;&lt;div&gt;8. Logga ut&lt;/div&gt;&lt;/div&gt;&lt;/div&gt;&lt;div&gt;9. Avsluta programmet&lt;/div&gt;&lt;/div&gt;&lt;/div&gt;&lt;/div&gt;" style="rounded=0;whiteSpace=wrap;html=1;align=left;" vertex="1" parent="1">
          <mxGeometry x="70" y="80" width="170" height="240" as="geometry" />
        </mxCell>
        <mxCell id="0mwjVfkE0feZcu9_tGYi-33" style="edgeStyle=orthogonalEdgeStyle;rounded=0;orthogonalLoop=1;jettySize=auto;html=1;entryX=1;entryY=0.5;entryDx=0;entryDy=0;" edge="1" parent="1" source="0mwjVfkE0feZcu9_tGYi-8" target="0mwjVfkE0feZcu9_tGYi-27">
          <mxGeometry relative="1" as="geometry">
            <Array as="points">
              <mxPoint x="640" y="-10" />
            </Array>
          </mxGeometry>
        </mxCell>
        <mxCell id="0mwjVfkE0feZcu9_tGYi-8" value="&lt;div&gt;== Lånhantering ==&lt;/div&gt;1. Lista lån&lt;div&gt;2. Förlänga lån&lt;br&gt;&lt;div&gt;3. Sök böcker (w/ sort)&lt;br&gt;&lt;div&gt;&lt;div&gt;4. Låna&lt;span style=&quot;background-color: initial;&quot;&gt;&amp;nbsp;&lt;/span&gt;&lt;/div&gt;&lt;div&gt;5. Lämna tillbaka&lt;/div&gt;&lt;div&gt;&lt;br&gt;&lt;/div&gt;&lt;div&gt;== Användarhantering ==&lt;/div&gt;&lt;div&gt;6. Ändra lösenord&lt;/div&gt;&lt;div&gt;&lt;br&gt;&lt;/div&gt;&lt;div&gt;7. Logga ut&lt;/div&gt;&lt;/div&gt;&lt;/div&gt;&lt;/div&gt;" style="rounded=0;whiteSpace=wrap;html=1;align=left;" vertex="1" parent="1">
          <mxGeometry x="560" y="80" width="159" height="240" as="geometry" />
        </mxCell>
        <mxCell id="0mwjVfkE0feZcu9_tGYi-13" value="True" style="text;html=1;align=center;verticalAlign=middle;whiteSpace=wrap;rounded=0;" vertex="1" parent="1">
          <mxGeometry x="261" y="160" width="60" height="30" as="geometry" />
        </mxCell>
        <mxCell id="0mwjVfkE0feZcu9_tGYi-14" value="False" style="text;html=1;align=center;verticalAlign=middle;whiteSpace=wrap;rounded=0;" vertex="1" parent="1">
          <mxGeometry x="472" y="160" width="60" height="30" as="geometry" />
        </mxCell>
        <mxCell id="0mwjVfkE0feZcu9_tGYi-27" value="&lt;div&gt;1.&amp;nbsp;&lt;span style=&quot;text-align: left; background-color: initial;&quot;&gt;Sök böcker (w/ sort)&lt;/span&gt;&lt;/div&gt;&lt;div&gt;&lt;span style=&quot;text-align: left; background-color: initial;&quot;&gt;&lt;br&gt;&lt;/span&gt;&lt;/div&gt;2. Logga in&lt;div&gt;3. Skapa konto&lt;/div&gt;" style="rounded=0;whiteSpace=wrap;html=1;" vertex="1" parent="1">
          <mxGeometry x="315" y="-55" width="170" height="90" as="geometry" />
        </mxCell>
        <mxCell id="0mwjVfkE0feZcu9_tGYi-29" style="edgeStyle=orthogonalEdgeStyle;rounded=0;orthogonalLoop=1;jettySize=auto;html=1;entryX=0.5;entryY=0;entryDx=0;entryDy=0;" edge="1" parent="1" source="0mwjVfkE0feZcu9_tGYi-28" target="0mwjVfkE0feZcu9_tGYi-27">
          <mxGeometry relative="1" as="geometry" />
        </mxCell>
        <mxCell id="0mwjVfkE0feZcu9_tGYi-28" value="START" style="rounded=1;whiteSpace=wrap;html=1;" vertex="1" parent="1">
          <mxGeometry x="340" y="-180" width="120" height="60" as="geometry" />
        </mxCell>
        <mxCell id="0mwjVfkE0feZcu9_tGYi-38" value="END" style="rounded=1;whiteSpace=wrap;html=1;" vertex="1" parent="1">
          <mxGeometry x="65" y="374" width="180" height="60" as="geometry" />
        </mxCell>
      </root>
    </mxGraphModel>
  </diagram>
</mxfile>
